<mxfile host="app.diagrams.net" modified="2023-11-02T19:53:05.432Z" agent="Mozilla/5.0 (Windows NT 10.0; Win64; x64) AppleWebKit/537.36 (KHTML, like Gecko) Chrome/116.0.0.0 Safari/537.36" etag="y9uw7aCYUmdvyMSgLeEy" version="22.0.8" type="github">
  <diagram name="Page-1" id="wPbyUL3oKKsgqQoAfKT-">
    <mxGraphModel dx="1434" dy="701" grid="1" gridSize="10" guides="1" tooltips="1" connect="1" arrows="1" fold="1" page="1" pageScale="1" pageWidth="850" pageHeight="1100" math="0" shadow="0">
      <root>
        <mxCell id="0" />
        <mxCell id="1" parent="0" />
        <mxCell id="XdXLXT0S9a01nOYPyu9i-1" value="" style="rounded=1;whiteSpace=wrap;html=1;fillColor=none;dashed=1;dashPattern=8 8;strokeColor=#3399FF;strokeWidth=2;" parent="1" vertex="1">
          <mxGeometry x="370" y="803" width="470" height="437" as="geometry" />
        </mxCell>
        <mxCell id="XdXLXT0S9a01nOYPyu9i-3" style="edgeStyle=orthogonalEdgeStyle;rounded=0;orthogonalLoop=1;jettySize=auto;html=1;entryX=0;entryY=0.5;entryDx=0;entryDy=0;" parent="1" source="XdXLXT0S9a01nOYPyu9i-4" target="XdXLXT0S9a01nOYPyu9i-8" edge="1">
          <mxGeometry relative="1" as="geometry" />
        </mxCell>
        <mxCell id="XdXLXT0S9a01nOYPyu9i-53" value="Order Ready for Pickup" style="edgeLabel;html=1;align=center;verticalAlign=middle;resizable=0;points=[];" parent="XdXLXT0S9a01nOYPyu9i-3" vertex="1" connectable="0">
          <mxGeometry x="-0.2889" y="-3" relative="1" as="geometry">
            <mxPoint x="21" y="-3" as="offset" />
          </mxGeometry>
        </mxCell>
        <mxCell id="XdXLXT0S9a01nOYPyu9i-4" value="store" style="verticalLabelPosition=bottom;html=1;verticalAlign=top;align=center;strokeColor=none;fillColor=#00BEF2;shape=mxgraph.azure.laptop;pointerEvents=1;" parent="1" vertex="1">
          <mxGeometry x="44" y="85" width="50" height="30" as="geometry" />
        </mxCell>
        <mxCell id="XdXLXT0S9a01nOYPyu9i-7" style="edgeStyle=orthogonalEdgeStyle;rounded=0;orthogonalLoop=1;jettySize=auto;html=1;entryX=0;entryY=0.5;entryDx=0;entryDy=0;" parent="1" source="XdXLXT0S9a01nOYPyu9i-8" target="XdXLXT0S9a01nOYPyu9i-13" edge="1">
          <mxGeometry relative="1" as="geometry" />
        </mxCell>
        <mxCell id="XdXLXT0S9a01nOYPyu9i-8" value="Core Communications Service" style="ellipse;whiteSpace=wrap;html=1;" parent="1" vertex="1">
          <mxGeometry x="240" y="60" width="120" height="80" as="geometry" />
        </mxCell>
        <mxCell id="XdXLXT0S9a01nOYPyu9i-9" style="edgeStyle=orthogonalEdgeStyle;rounded=0;orthogonalLoop=1;jettySize=auto;html=1;entryX=0;entryY=0.5;entryDx=0;entryDy=0;" parent="1" source="XdXLXT0S9a01nOYPyu9i-13" target="XdXLXT0S9a01nOYPyu9i-19" edge="1">
          <mxGeometry relative="1" as="geometry">
            <mxPoint x="719" y="100" as="targetPoint" />
          </mxGeometry>
        </mxCell>
        <mxCell id="XdXLXT0S9a01nOYPyu9i-10" value="EMAIL" style="edgeLabel;html=1;align=center;verticalAlign=middle;resizable=0;points=[];" parent="XdXLXT0S9a01nOYPyu9i-9" vertex="1" connectable="0">
          <mxGeometry x="-0.1" relative="1" as="geometry">
            <mxPoint as="offset" />
          </mxGeometry>
        </mxCell>
        <mxCell id="XdXLXT0S9a01nOYPyu9i-57" value="SMS" style="edgeStyle=orthogonalEdgeStyle;rounded=0;orthogonalLoop=1;jettySize=auto;html=1;entryX=0.5;entryY=0;entryDx=0;entryDy=0;" parent="1" source="XdXLXT0S9a01nOYPyu9i-13" target="XdXLXT0S9a01nOYPyu9i-42" edge="1">
          <mxGeometry relative="1" as="geometry">
            <Array as="points">
              <mxPoint x="343" y="180" />
            </Array>
          </mxGeometry>
        </mxCell>
        <mxCell id="XdXLXT0S9a01nOYPyu9i-13" value="Preferred channel SMS/EMAIL?" style="rhombus;whiteSpace=wrap;html=1;" parent="1" vertex="1">
          <mxGeometry x="509" y="20" width="130" height="160" as="geometry" />
        </mxCell>
        <mxCell id="XdXLXT0S9a01nOYPyu9i-14" style="edgeStyle=orthogonalEdgeStyle;rounded=0;orthogonalLoop=1;jettySize=auto;html=1;entryX=1;entryY=0.5;entryDx=0;entryDy=0;" parent="1" source="XdXLXT0S9a01nOYPyu9i-18" target="XdXLXT0S9a01nOYPyu9i-25" edge="1">
          <mxGeometry relative="1" as="geometry" />
        </mxCell>
        <mxCell id="XdXLXT0S9a01nOYPyu9i-15" value="No" style="edgeLabel;html=1;align=center;verticalAlign=middle;resizable=0;points=[];" parent="XdXLXT0S9a01nOYPyu9i-14" vertex="1" connectable="0">
          <mxGeometry x="-0.2" y="2" relative="1" as="geometry">
            <mxPoint as="offset" />
          </mxGeometry>
        </mxCell>
        <mxCell id="XdXLXT0S9a01nOYPyu9i-59" style="edgeStyle=orthogonalEdgeStyle;rounded=0;orthogonalLoop=1;jettySize=auto;html=1;entryX=0.5;entryY=0;entryDx=0;entryDy=0;" parent="1" source="XdXLXT0S9a01nOYPyu9i-18" target="XdXLXT0S9a01nOYPyu9i-58" edge="1">
          <mxGeometry relative="1" as="geometry" />
        </mxCell>
        <mxCell id="XdXLXT0S9a01nOYPyu9i-61" value="Yes" style="edgeLabel;html=1;align=center;verticalAlign=middle;resizable=0;points=[];" parent="XdXLXT0S9a01nOYPyu9i-59" vertex="1" connectable="0">
          <mxGeometry x="-0.0588" y="-3" relative="1" as="geometry">
            <mxPoint as="offset" />
          </mxGeometry>
        </mxCell>
        <mxCell id="XdXLXT0S9a01nOYPyu9i-18" value="User opted in TRANSACTIONAL list?" style="rhombus;whiteSpace=wrap;html=1;" parent="1" vertex="1">
          <mxGeometry x="263" y="310" width="160" height="140" as="geometry" />
        </mxCell>
        <mxCell id="XdXLXT0S9a01nOYPyu9i-19" value="New PCM Template?" style="rounded=1;whiteSpace=wrap;html=1;" parent="1" vertex="1">
          <mxGeometry x="720" y="70" width="120" height="60" as="geometry" />
        </mxCell>
        <mxCell id="XdXLXT0S9a01nOYPyu9i-24" value="" style="edgeStyle=orthogonalEdgeStyle;rounded=0;orthogonalLoop=1;jettySize=auto;html=1;" parent="1" source="XdXLXT0S9a01nOYPyu9i-25" target="XdXLXT0S9a01nOYPyu9i-28" edge="1">
          <mxGeometry relative="1" as="geometry" />
        </mxCell>
        <mxCell id="XdXLXT0S9a01nOYPyu9i-25" value="Optin phone to TRANSACTIONAL list via Kaleyra optin API" style="rounded=1;whiteSpace=wrap;html=1;" parent="1" vertex="1">
          <mxGeometry x="90" y="350" width="121" height="60" as="geometry" />
        </mxCell>
        <mxCell id="XdXLXT0S9a01nOYPyu9i-26" style="edgeStyle=orthogonalEdgeStyle;rounded=0;orthogonalLoop=1;jettySize=auto;html=1;entryX=0.5;entryY=0;entryDx=0;entryDy=0;" parent="1" source="XdXLXT0S9a01nOYPyu9i-27" target="XdXLXT0S9a01nOYPyu9i-45" edge="1">
          <mxGeometry relative="1" as="geometry">
            <mxPoint x="283.5" y="820" as="targetPoint" />
          </mxGeometry>
        </mxCell>
        <mxCell id="XdXLXT0S9a01nOYPyu9i-27" value="Trigger Template Broadcast" style="rounded=1;whiteSpace=wrap;html=1;" parent="1" vertex="1">
          <mxGeometry x="121" y="710" width="121" height="60" as="geometry" />
        </mxCell>
        <mxCell id="XdXLXT0S9a01nOYPyu9i-60" style="edgeStyle=orthogonalEdgeStyle;rounded=0;orthogonalLoop=1;jettySize=auto;html=1;entryX=0;entryY=0.5;entryDx=0;entryDy=0;exitX=0.5;exitY=1;exitDx=0;exitDy=0;" parent="1" source="XdXLXT0S9a01nOYPyu9i-28" target="XdXLXT0S9a01nOYPyu9i-58" edge="1">
          <mxGeometry relative="1" as="geometry" />
        </mxCell>
        <mxCell id="XdXLXT0S9a01nOYPyu9i-28" value="Optin phone to TRANSACTIONAL in OneView?" style="rounded=1;whiteSpace=wrap;html=1;" parent="1" vertex="1">
          <mxGeometry x="91" y="460" width="120" height="60" as="geometry" />
        </mxCell>
        <mxCell id="XdXLXT0S9a01nOYPyu9i-29" style="edgeStyle=orthogonalEdgeStyle;rounded=0;orthogonalLoop=1;jettySize=auto;html=1;entryX=0.5;entryY=0;entryDx=0;entryDy=0;exitX=0.5;exitY=1;exitDx=0;exitDy=0;" parent="1" source="XdXLXT0S9a01nOYPyu9i-67" target="XdXLXT0S9a01nOYPyu9i-70" edge="1">
          <mxGeometry relative="1" as="geometry">
            <mxPoint x="529" y="810" as="sourcePoint" />
            <mxPoint x="540" y="813" as="targetPoint" />
          </mxGeometry>
        </mxCell>
        <mxCell id="XdXLXT0S9a01nOYPyu9i-31" style="edgeStyle=orthogonalEdgeStyle;rounded=0;orthogonalLoop=1;jettySize=auto;html=1;entryX=0.5;entryY=0;entryDx=0;entryDy=0;" parent="1" source="XdXLXT0S9a01nOYPyu9i-51" target="XdXLXT0S9a01nOYPyu9i-40" edge="1">
          <mxGeometry relative="1" as="geometry">
            <mxPoint x="540" y="1213" as="targetPoint" />
          </mxGeometry>
        </mxCell>
        <mxCell id="XdXLXT0S9a01nOYPyu9i-34" style="edgeStyle=orthogonalEdgeStyle;rounded=0;orthogonalLoop=1;jettySize=auto;html=1;entryX=0;entryY=0.5;entryDx=0;entryDy=0;" parent="1" target="XdXLXT0S9a01nOYPyu9i-37" edge="1">
          <mxGeometry relative="1" as="geometry">
            <mxPoint x="620" y="883" as="sourcePoint" />
          </mxGeometry>
        </mxCell>
        <mxCell id="XdXLXT0S9a01nOYPyu9i-35" value="Yes" style="edgeLabel;html=1;align=center;verticalAlign=middle;resizable=0;points=[];" parent="XdXLXT0S9a01nOYPyu9i-34" vertex="1" connectable="0">
          <mxGeometry x="0.025" y="2" relative="1" as="geometry">
            <mxPoint as="offset" />
          </mxGeometry>
        </mxCell>
        <mxCell id="XdXLXT0S9a01nOYPyu9i-37" value="Do nothing" style="rounded=1;whiteSpace=wrap;html=1;" parent="1" vertex="1">
          <mxGeometry x="700" y="853" width="120" height="60" as="geometry" />
        </mxCell>
        <mxCell id="XdXLXT0S9a01nOYPyu9i-38" style="edgeStyle=orthogonalEdgeStyle;rounded=0;orthogonalLoop=1;jettySize=auto;html=1;entryX=0.5;entryY=0;entryDx=0;entryDy=0;" parent="1" source="XdXLXT0S9a01nOYPyu9i-39" target="XdXLXT0S9a01nOYPyu9i-51" edge="1">
          <mxGeometry relative="1" as="geometry" />
        </mxCell>
        <mxCell id="XdXLXT0S9a01nOYPyu9i-39" value="Send SMS reminder #1" style="rounded=1;whiteSpace=wrap;html=1;" parent="1" vertex="1">
          <mxGeometry x="479" y="930" width="120" height="60" as="geometry" />
        </mxCell>
        <mxCell id="XdXLXT0S9a01nOYPyu9i-40" value="Send SMS reminder #2" style="rounded=1;whiteSpace=wrap;html=1;" parent="1" vertex="1">
          <mxGeometry x="479" y="1110" width="120" height="60" as="geometry" />
        </mxCell>
        <mxCell id="XdXLXT0S9a01nOYPyu9i-41" style="edgeStyle=orthogonalEdgeStyle;rounded=0;orthogonalLoop=1;jettySize=auto;html=1;entryX=0.5;entryY=0;entryDx=0;entryDy=0;" parent="1" source="XdXLXT0S9a01nOYPyu9i-42" target="XdXLXT0S9a01nOYPyu9i-18" edge="1">
          <mxGeometry relative="1" as="geometry" />
        </mxCell>
        <mxCell id="XdXLXT0S9a01nOYPyu9i-42" value="Order Ready for Pickup Process" style="rounded=1;whiteSpace=wrap;html=1;" parent="1" vertex="1">
          <mxGeometry x="283" y="210" width="120" height="60" as="geometry" />
        </mxCell>
        <mxCell id="XdXLXT0S9a01nOYPyu9i-43" value="" style="group" parent="1" vertex="1" connectable="0">
          <mxGeometry x="70" y="826" width="174" height="63" as="geometry" />
        </mxCell>
        <mxCell id="XdXLXT0S9a01nOYPyu9i-44" value="Text Y/N" style="outlineConnect=0;dashed=0;verticalLabelPosition=bottom;verticalAlign=top;align=center;html=1;shape=mxgraph.aws3.mobile_client;fillColor=#D2D3D3;gradientColor=none;" parent="XdXLXT0S9a01nOYPyu9i-43" vertex="1">
          <mxGeometry width="40.5" height="63" as="geometry" />
        </mxCell>
        <mxCell id="XdXLXT0S9a01nOYPyu9i-45" value="SMS with info delivered" style="rounded=1;whiteSpace=wrap;html=1;" parent="XdXLXT0S9a01nOYPyu9i-43" vertex="1">
          <mxGeometry x="48" y="3" width="126" height="60" as="geometry" />
        </mxCell>
        <mxCell id="XdXLXT0S9a01nOYPyu9i-48" value="Multistep program in Kaleyra" style="text;html=1;strokeColor=none;fillColor=none;align=center;verticalAlign=middle;whiteSpace=wrap;rounded=0;fontColor=#66B2FF;fontStyle=1" parent="1" vertex="1">
          <mxGeometry x="574" y="803" width="200" height="30" as="geometry" />
        </mxCell>
        <mxCell id="XdXLXT0S9a01nOYPyu9i-63" style="edgeStyle=orthogonalEdgeStyle;rounded=0;orthogonalLoop=1;jettySize=auto;html=1;entryX=0.5;entryY=0;entryDx=0;entryDy=0;" parent="1" source="XdXLXT0S9a01nOYPyu9i-58" target="XdXLXT0S9a01nOYPyu9i-62" edge="1">
          <mxGeometry relative="1" as="geometry">
            <Array as="points">
              <mxPoint x="343" y="570" />
              <mxPoint x="182" y="570" />
            </Array>
          </mxGeometry>
        </mxCell>
        <mxCell id="XdXLXT0S9a01nOYPyu9i-66" style="edgeStyle=orthogonalEdgeStyle;rounded=0;orthogonalLoop=1;jettySize=auto;html=1;entryX=0.5;entryY=0;entryDx=0;entryDy=0;" parent="1" target="XdXLXT0S9a01nOYPyu9i-65" edge="1">
          <mxGeometry relative="1" as="geometry">
            <mxPoint x="343" y="570" as="sourcePoint" />
          </mxGeometry>
        </mxCell>
        <mxCell id="XdXLXT0S9a01nOYPyu9i-58" value="" style="ellipse;whiteSpace=wrap;html=1;aspect=fixed;" parent="1" vertex="1">
          <mxGeometry x="338" y="535" width="10" height="10" as="geometry" />
        </mxCell>
        <mxCell id="XdXLXT0S9a01nOYPyu9i-64" style="edgeStyle=orthogonalEdgeStyle;rounded=0;orthogonalLoop=1;jettySize=auto;html=1;entryX=0.5;entryY=0;entryDx=0;entryDy=0;" parent="1" source="XdXLXT0S9a01nOYPyu9i-62" target="XdXLXT0S9a01nOYPyu9i-27" edge="1">
          <mxGeometry relative="1" as="geometry" />
        </mxCell>
        <mxCell id="XdXLXT0S9a01nOYPyu9i-62" value="Initial Order Ready for pickup SMS process" style="rounded=1;whiteSpace=wrap;html=1;" parent="1" vertex="1">
          <mxGeometry x="117.5" y="600" width="128" height="60" as="geometry" />
        </mxCell>
        <mxCell id="XdXLXT0S9a01nOYPyu9i-68" style="edgeStyle=orthogonalEdgeStyle;rounded=0;orthogonalLoop=1;jettySize=auto;html=1;entryX=0.5;entryY=0;entryDx=0;entryDy=0;" parent="1" source="XdXLXT0S9a01nOYPyu9i-65" target="XdXLXT0S9a01nOYPyu9i-67" edge="1">
          <mxGeometry relative="1" as="geometry" />
        </mxCell>
        <mxCell id="XdXLXT0S9a01nOYPyu9i-65" value="SMS Reminders process" style="rounded=1;whiteSpace=wrap;html=1;" parent="1" vertex="1">
          <mxGeometry x="479" y="600" width="121" height="60" as="geometry" />
        </mxCell>
        <mxCell id="XdXLXT0S9a01nOYPyu9i-67" value="Trigger Reminder Multistep program" style="rounded=1;whiteSpace=wrap;html=1;" parent="1" vertex="1">
          <mxGeometry x="479" y="710" width="121" height="60" as="geometry" />
        </mxCell>
        <mxCell id="XdXLXT0S9a01nOYPyu9i-72" style="edgeStyle=orthogonalEdgeStyle;rounded=0;orthogonalLoop=1;jettySize=auto;html=1;" parent="1" source="XdXLXT0S9a01nOYPyu9i-70" target="XdXLXT0S9a01nOYPyu9i-39" edge="1">
          <mxGeometry relative="1" as="geometry" />
        </mxCell>
        <mxCell id="XdXLXT0S9a01nOYPyu9i-70" value="Delay 1 day" style="rounded=1;whiteSpace=wrap;html=1;" parent="1" vertex="1">
          <mxGeometry x="479" y="840" width="120" height="60" as="geometry" />
        </mxCell>
        <mxCell id="XdXLXT0S9a01nOYPyu9i-51" value="Delay 1 day" style="rounded=1;whiteSpace=wrap;html=1;" parent="1" vertex="1">
          <mxGeometry x="476" y="1023" width="126" height="60" as="geometry" />
        </mxCell>
        <mxCell id="XdXLXT0S9a01nOYPyu9i-73" value="store" style="verticalLabelPosition=bottom;html=1;verticalAlign=top;align=center;strokeColor=none;fillColor=#00BEF2;shape=mxgraph.azure.laptop;pointerEvents=1;" parent="1" vertex="1">
          <mxGeometry x="20" y="340" width="50" height="30" as="geometry" />
        </mxCell>
        <mxCell id="XdXLXT0S9a01nOYPyu9i-74" style="edgeStyle=orthogonalEdgeStyle;rounded=0;orthogonalLoop=1;jettySize=auto;html=1;entryX=0;entryY=0.5;entryDx=0;entryDy=0;" parent="1" source="XdXLXT0S9a01nOYPyu9i-76" target="XdXLXT0S9a01nOYPyu9i-77" edge="1">
          <mxGeometry relative="1" as="geometry" />
        </mxCell>
        <mxCell id="XdXLXT0S9a01nOYPyu9i-75" value="Order&lt;br&gt;Picked up" style="edgeLabel;html=1;align=center;verticalAlign=middle;resizable=0;points=[];" parent="XdXLXT0S9a01nOYPyu9i-74" vertex="1" connectable="0">
          <mxGeometry x="-0.2889" y="-3" relative="1" as="geometry">
            <mxPoint x="21" y="-3" as="offset" />
          </mxGeometry>
        </mxCell>
        <mxCell id="XdXLXT0S9a01nOYPyu9i-76" value="store" style="verticalLabelPosition=bottom;html=1;verticalAlign=top;align=center;strokeColor=none;fillColor=#00BEF2;shape=mxgraph.azure.laptop;pointerEvents=1;" parent="1" vertex="1">
          <mxGeometry y="1028" width="50" height="30" as="geometry" />
        </mxCell>
        <mxCell id="XdXLXT0S9a01nOYPyu9i-77" value="Core Communications Service" style="ellipse;whiteSpace=wrap;html=1;" parent="1" vertex="1">
          <mxGeometry x="150" y="1005" width="120" height="80" as="geometry" />
        </mxCell>
        <mxCell id="Bkph0S-CIFbdq-erop_7-3" value="" style="shape=curlyBracket;whiteSpace=wrap;html=1;rounded=1;labelPosition=left;verticalLabelPosition=middle;align=right;verticalAlign=middle;" vertex="1" parent="1">
          <mxGeometry x="430" y="940" width="30" height="210" as="geometry" />
        </mxCell>
        <mxCell id="Bkph0S-CIFbdq-erop_7-6" style="edgeStyle=orthogonalEdgeStyle;rounded=0;orthogonalLoop=1;jettySize=auto;html=1;entryX=0.1;entryY=0.5;entryDx=0;entryDy=0;entryPerimeter=0;" edge="1" parent="1" source="XdXLXT0S9a01nOYPyu9i-77" target="Bkph0S-CIFbdq-erop_7-3">
          <mxGeometry relative="1" as="geometry" />
        </mxCell>
        <mxCell id="Bkph0S-CIFbdq-erop_7-7" value="Cancel reminders" style="edgeLabel;html=1;align=center;verticalAlign=middle;resizable=0;points=[];" vertex="1" connectable="0" parent="Bkph0S-CIFbdq-erop_7-6">
          <mxGeometry x="-0.3865" relative="1" as="geometry">
            <mxPoint as="offset" />
          </mxGeometry>
        </mxCell>
      </root>
    </mxGraphModel>
  </diagram>
</mxfile>
